<svg viewBox="0 0 32 32" xmlns="http://www.w3.org/2000/svg"><g stroke="#ffffff" fill="none" fill-rule="evenodd" class="stroke-979797"><path d="M12.64 6.506a6.74 6.74 0 1 0 1.823 10.897" stroke-width="2"></path><path d="M12.97 15.544a8.667 8.667 0 1 0-1.303-6.73" stroke-linecap="round" stroke-width="2"></path><path d="m19 25.013-1.238 1.675a1.823 1.823 0 0 0 .177 2.373 1.5 1.5 0 0 0 2.122 0 1.823 1.823 0 0 0 .177-2.373L19 25.013ZM11 25.013l-1.238 1.675a1.823 1.823 0 0 0 .177 2.373 1.5 1.5 0 0 0 2.122 0 1.823 1.823 0 0 0 .177-2.373L11 25.013ZM15 21.013l-1.238 1.675a1.823 1.823 0 0 0 .177 2.373 1.5 1.5 0 0 0 2.122 0 1.823 1.823 0 0 0 .177-2.373L15 21.013Z" fill="#ffffff" class="fill-979797"></path></g></svg>