<svg viewBox="0 0 32 32" xmlns="http://www.w3.org/2000/svg"><g stroke="#ffffff" fill="none" fill-rule="evenodd" class="stroke-979797"><path d="M12.589 3.768A12.942 12.942 0 0 0 11 10c0 7.18 5.82 13 13 13 1.549 0 3.034-.27 4.411-.768A12.997 12.997 0 0 1 17 29C9.82 29 4 23.18 4 16c0-5.631 3.58-10.426 8.589-12.232Z" stroke-linecap="round" stroke-linejoin="round" stroke-width="2"></path><path fill="#ffffff" d="m16.25 9.392-.147.06.012-.158-.103-.121.155-.038L16.25 9l.083.135.155.038-.103.12.012.16zM24 9.566l-.588.243.05-.634-.413-.484.618-.15L24 8l.333.542.618.149-.413.484.05.634zM19.5 12.783l-.294.122.025-.318-.207-.242.31-.074L19.5 12l.166.271.31.074-.207.242.025.318zM20 5.566l-.588.243.05-.634-.413-.484.618-.15L20 4l.333.542.618.149-.413.484.05.634z" class="fill-d8d8d8"></path></g></svg>