<svg data-name="Layer 1" viewBox="0 0 64 64" xmlns="http://www.w3.org/2000/svg"><path d="M35 51.87a14 14 0 0 1-14-14C21 27.5 33.12 16 33.63 15.54a2 2 0 0 1 2.74 0C36.88 16 49 27.5 49 37.87a14 14 0 0 1-14 14Zm0-32c-3 3.17-10 11.23-10 18a10 10 0 0 0 20 0c0-6.8-7-14.87-10-18.03Z" fill="#ffffff" class="fill-000000"></path><path d="M23 41a10 10 0 0 1-10-10c0-7.2 8.28-15 8.63-15.37a2 2 0 0 1 2.74 0 39.24 39.24 0 0 1 6 7.42 2 2 0 0 1-3.42 2.07A33.74 33.74 0 0 0 23 19.95c-2.42 2.63-6 7.33-6 11.05a6 6 0 0 0 6 6 2 2 0 0 1 0 4Z" fill="#ffffff" class="fill-000000"></path></svg>