<svg data-name="Layer 3" viewBox="0 0 100 100" xmlns="http://www.w3.org/2000/svg"><path d="M27.12 62.785a10.337 10.337 0 1 0 17.645-7.308l-6.248-6.248a1.5 1.5 0 0 0-2.121 0l-6.249 6.248a10.268 10.268 0 0 0-3.028 7.308ZM37.455 52.41l5.188 5.188a7.337 7.337 0 1 1-10.375 0Z" fill="#ffffff" class="fill-000000"></path><path d="M37.456 68.121a5.336 5.336 0 0 0 3.773-9.11 1.5 1.5 0 0 0-2.12 2.122 2.335 2.335 0 0 1 0 3.304 2.395 2.395 0 0 1-3.305 0 1.5 1.5 0 1 0-2.121 2.122 5.3 5.3 0 0 0 3.773 1.562ZM62.544 73.115a10.331 10.331 0 0 0 7.309-17.638l-6.248-6.248a1.5 1.5 0 0 0-2.122 0l-6.248 6.248a10.33 10.33 0 0 0 7.309 17.638Zm-5.188-15.517 5.188-5.188 5.188 5.188a7.337 7.337 0 1 1-10.376 0Z" fill="#ffffff" class="fill-000000"></path><path d="M62.544 68.121a5.336 5.336 0 0 0 3.773-9.11 1.5 1.5 0 1 0-2.12 2.122 2.335 2.335 0 0 1 0 3.304 2.395 2.395 0 0 1-3.305 0 1.5 1.5 0 1 0-2.121 2.122 5.3 5.3 0 0 0 3.773 1.562ZM57.309 48.184a10.333 10.333 0 0 0 0-14.618l-6.248-6.248a1.5 1.5 0 0 0-2.122 0l-6.248 6.248A10.336 10.336 0 0 0 57.31 48.184Zm-14.646-7.309a7.29 7.29 0 0 1 2.15-5.188L50 30.5l5.188 5.188a7.336 7.336 0 1 1-12.525 5.187Z" fill="#ffffff" class="fill-000000"></path><path d="M53.773 44.648a5.334 5.334 0 0 0 0-7.545 1.5 1.5 0 1 0-2.12 2.12 2.335 2.335 0 0 1 0 3.304 2.397 2.397 0 0 1-3.305 0 1.5 1.5 0 0 0-2.121 2.121 5.338 5.338 0 0 0 7.546 0Z" fill="#ffffff" class="fill-000000"></path></svg>