<svg viewBox="0 0 32 32" xmlns="http://www.w3.org/2000/svg"><g stroke="#ffffff" stroke-width="2" fill="none" fill-rule="evenodd" class="stroke-979797"><path d="M20.062 22.393c1.242.394 2.565.607 3.938.607 1.549 0 3.034-.27 4.411-.768A12.997 12.997 0 0 1 17 29C9.82 29 4 23.18 4 16c0-5.631 3.58-10.426 8.589-12.232-.541.987-.957 2.053-1.228 3.175" stroke-linecap="round" stroke-linejoin="round"></path><path d="M16.244 11.048a2.536 2.536 0 0 0-2.656-2.41 2.536 2.536 0 0 0-2.39 2.675c.026.476.179.915.425 1.284"></path><path d="M19.811 8.651a2.45 2.45 0 0 0-2.194-1.134 2.447 2.447 0 0 0-1.998 1.235" stroke-linecap="round"></path><path d="M16.87 11.918c-.57-.241-1.2-.36-1.857-.326-2.356.124-4.163 2.171-4.038 4.574.126 2.402 2.138 4.249 4.494 4.126a4.216 4.216 0 0 0 2.924-1.403"></path><path d="M17.385 17.739c1.064 1.424 2.778 2.307 4.662 2.208 3.03-.159 5.354-2.791 5.192-5.88-.162-3.089-2.749-5.464-5.778-5.305-2.627.138-4.723 2.136-5.129 4.678" stroke-linecap="round"></path></g></svg>